<?xml version="1.0" encoding="UTF-8"?><svg id="_レイヤー_2" xmlns="http://www.w3.org/2000/svg" viewBox="0 0 142.72 26.06"><g id="_レイヤー_2-2"><rect x="16.12" y=".13" width="2" height="25.93"/><rect x="24.38" y=".13" width="2" height="25.93"/><rect x="32.83" y=".13" width="2" height="25.93"/><rect x="77.84" y=".13" width="2" height="25.93"/><rect x="112.81" y=".13" width="2" height="25.93"/><rect x="132.24" y=".13" width="2" height="25.93"/><polygon points="54.84 26.06 52.84 26.06 60.84 .13 62.84 .13 54.84 26.06"/><polygon points="88.39 26.06 86.39 26.06 94.4 .13 96.4 .13 88.39 26.06"/><rect y=".13" width="2" height="25.93"/><rect x=".9" y="11.56" width="10.92" height="2"/><path d="m38.88,18.03v-2c3.87,0,7.01-3.15,7.01-7.01s-3.15-7.01-7.01-7.01V0c4.97,0,9.01,4.04,9.01,9.01s-4.04,9.01-9.01,9.01Z"/><path d="m42.94,18.71l3.11,7.35h2l-3.48-8.22c-.52.33-1.06.63-1.63.87Z"/><path d="m118.74,18.03v-2c3.87,0,7.01-3.15,7.01-7.01s-3.15-7.01-7.01-7.01V0c4.97,0,9.01,4.04,9.01,9.01s-4.04,9.01-9.01,9.01Z"/><rect x="56.92" y="15.54" width="8.66" height="2"/><rect x="90.24" y="15.54" width="8.66" height="2"/><rect x="68.78" width="16.46" height="2"/><rect x="132.26" width="10.46" height="2"/><rect x="132.26" y="12.09" width="7.46" height="2"/><path d="m105.48,22.76c-1.82,0-3.3,1.48-3.3,3.3h6.6c0-1.82-1.48-3.3-3.3-3.3Z"/></g></svg>