<?xml version="1.0" encoding="UTF-8"?><svg id="_レイヤー_2" xmlns="http://www.w3.org/2000/svg" viewBox="0 0 1000 999.01"><defs><style>.cls-1{fill:#eee;}</style></defs><g id="_レイヤー_1-2"><path class="cls-1" d="m138.73,218.78c79.02-25.95,133.37-76.51,121.41-112.93-7.54-22.94-39.6-34.8-82.04-33.94,21.43-16.38,31.57-44.75,23.7-71.9H72.97c-1.1,3.78-1.86,7.67-2.28,11.62-4.12-4.52-8.83-8.41-13.95-11.62H0v120.42c6.37,2.12,13.09,3.3,19.94,3.42C12.53,129.07,5.86,134.48,0,139.99v84.92c30.77,13.32,83.46,12.02,138.73-6.13ZM87.82,63.79c7.21,7.9,16.17,13.91,26.06,17.62-6.11,1.62-12.28,3.44-18.48,5.48-6.2,2.04-12.25,4.22-18.12,6.54,5.77-8.85,9.42-19.01,10.54-29.64Z"/><path class="cls-1" d="m786.63,536.19c-1.71,11.39,2.71,23.04,11.95,34.1l38.18-75.85c-28.38,8.41-47.31,22.97-50.12,41.75Z"/><path class="cls-1" d="m964.87,402.2c-2.68,2.88-5.11,6.01-7.26,9.35-1.65-5.89-4.1-11.48-7.23-16.65-9.96-16.45-26.88-28.52-47.39-31.6-36.63-5.5-70.77,19.74-76.27,56.36-3.28,21.83,4.37,42.76,18.83,57.28,4.74,4.76,10.21,8.83,16.27,12.02-8.97,1.34-17.36,3.17-25.07,5.46l-38.18,75.85c21.5,25.73,69.15,48.26,126.67,56.89,26.7,4.01,52.23,4.53,74.75,2.11v-247.09c-13.57,2.91-25.83,9.98-35.13,19.99Zm-19.02,87.7c-6.45-.97-12.84-1.73-19.13-2.3,9.13-5.31,16.96-12.74,22.74-21.74,2.89,10.29,8.19,19.7,15.36,27.45-6.18-1.3-12.51-2.45-18.96-3.42Z"/><path class="cls-1" d="m0,991.85v7.16h55.72c-16.07-10.07-36.27-13.28-55.72-7.16Z"/><path class="cls-1" d="m200.07,996.7c-11.56-35.19-49.45-54.34-84.63-42.79-21.87,7.18-37.53,24.54-43.48,45.09h128.83c-.22-.77-.45-1.54-.71-2.31Z"/><path class="cls-1" d="m0,991.85v7.16h55.72c-16.07-10.07-36.27-13.28-55.72-7.16Z"/><path class="cls-1" d="m200.07,996.7c-11.56-35.19-49.45-54.34-84.63-42.79-21.87,7.18-37.53,24.54-43.48,45.09h128.83c-.22-.77-.45-1.54-.71-2.31Z"/></g></svg>